<svg width="32" height="32" xmlns="http://www.w3.org/2000/svg" xmlns:xlink="http://www.w3.org/1999/xlink"><defs><circle id="a" cx="16" cy="16" r="16"/><circle id="c" cx="16" cy="16" r="16"/><path id="e" d="M0 0h39v26H0z"/><path id="g" d="M0 0h20v13H0z"/><filter x="-4.7%" y="-4.7%" width="109.4%" height="109.4%" filterUnits="objectBoundingBox" id="b"><feMorphology radius="1" in="SourceAlpha" result="shadowSpreadInner1"/><feGaussianBlur stdDeviation="1" in="shadowSpreadInner1" result="shadowBlurInner1"/><feOffset in="shadowBlurInner1" result="shadowOffsetInner1"/><feComposite in="shadowOffsetInner1" in2="SourceAlpha" operator="arithmetic" k2="-1" k3="1" result="shadowInnerInner1"/><feColorMatrix values="0 0 0 0 0 0 0 0 0 0 0 0 0 0 0 0 0 0 0.5 0" in="shadowInnerInner1"/></filter></defs><g fill="none" fill-rule="evenodd"><use fill="#FFF" xlink:href="#a"/><use fill="#000" filter="url(#b)" xlink:href="#a"/><mask id="d" fill="#fff"><use xlink:href="#c"/></mask><use fill="#1D3B80" xlink:href="#c"/><g mask="url(#d)"><g transform="translate(-4)"><mask id="f" fill="#fff"><use xlink:href="#e"/></mask><use fill="#1D3B80" xlink:href="#e"/><path d="m19.388 21.484-2.377.19.327 2.173-1.644-1.59-1.644 1.59.328-2.173-2.378-.19 2.052-1.12-1.32-1.827 2.231.777.731-2.088.731 2.088 2.232-.777-1.32 1.827m12.224 3.123-.574-.794.97.338.317-.908.317.908.97-.338-.574.794.892.487-1.033.082.143.944-.715-.69-.714.69.142-.944-1.033-.082m.892-14.61-.574-.794.97.337.317-.907.317.907.97-.337-.574.794.892.486-1.033.083.143.943-.715-.69-.714.69.142-.943-1.033-.083m-4.87 5.251-.574-.794.97.338.317-.907.318.907.97-.338-.574.794.891.487-1.033.082.143.944-.715-.69-.714.69.142-.944-1.032-.082m11.776-1.9-.575-.793.97.338.315-.908.32.908.967-.338-.572.794.891.486-1.033.083.142.944-.715-.69-.714.69.142-.944-1.031-.083m-1.212 3.675-.565.322.159-.593-.508-.394.663-.045.25-.565.252.565.662.045-.507.394.158.593" fill="#FFF" mask="url(#f)"/><g mask="url(#f)"><mask id="h" fill="#fff"><use xlink:href="#g"/></mask><use fill="#1D3B80" xlink:href="#g"/><g mask="url(#h)" fill="#E8525D" stroke="#FFF" stroke-linecap="round" stroke-linejoin="round" stroke-width=".5"><path d="M-.25 12.05v1.2H.833l.134-.039L20.25.95v-1.2h-1.083l-.134.039L-.25 12.05z"/><path d="M-.25.95v-1.2H.833l.134.039L20.25 12.05v1.2h-1.083l-.134-.039L-.25.95z"/></g><path d="M11.679 5.026h8.524v2.948H11.68v5.276h-2.95V7.974H-.202V5.026H8.73V-.25h2.949v5.276z" stroke="#FFF" stroke-width=".5" fill="#C7152A" mask="url(#h)"/><path d="M11.429 5.276h8.524v2.448H11.43V13h-2.45V7.724H.048V5.276H8.98V0h2.449v5.276z" fill="#FF2353" mask="url(#h)"/></g></g></g></g></svg>