<svg width="32" height="32" xmlns="http://www.w3.org/2000/svg" xmlns:xlink="http://www.w3.org/1999/xlink"><defs><circle id="a" cx="16" cy="16" r="16"/><circle id="c" cx="16" cy="16" r="16"/><filter x="-4.7%" y="-4.7%" width="109.4%" height="109.4%" filterUnits="objectBoundingBox" id="b"><feMorphology radius="1" in="SourceAlpha" result="shadowSpreadInner1"/><feGaussianBlur stdDeviation="1" in="shadowSpreadInner1" result="shadowBlurInner1"/><feOffset in="shadowBlurInner1" result="shadowOffsetInner1"/><feComposite in="shadowOffsetInner1" in2="SourceAlpha" operator="arithmetic" k2="-1" k3="1" result="shadowInnerInner1"/><feColorMatrix values="0 0 0 0 0 0 0 0 0 0 0 0 0 0 0 0 0 0 0.5 0" in="shadowInnerInner1"/></filter></defs><g fill="none" fill-rule="evenodd"><use fill="#12234D" xlink:href="#a"/><use fill="#000" filter="url(#b)" xlink:href="#a"/><mask id="d" fill="#fff"><use xlink:href="#c"/></mask><use fill="#1D3B80" xlink:href="#c"/><g mask="url(#d)"><path fill="#FFF" d="M3.993 0h23.985v32H3.993z"/><path fill="#FFF" d="M-8 0h48v32H-8z"/><path d="M-8 0H3.993v32H-8V0zm35.978 0H39.97v32H27.978V0zM7.579 15.463l-.931.3 4.333 3.591c.328.923-.113 1.195-.395 1.679l4.705-.564-.123 4.47.975-.027-.213-4.432 4.71.527c-.292-.581-.551-.89-.282-1.819l4.331-3.402-.758-.259c-.62-.45.268-2.174.402-3.26 0 0-2.529.82-2.694.39l-.644-1.167-2.301 2.386c-.251.056-.358-.038-.417-.239l1.062-4.985-1.683.894c-.14.057-.281.008-.374-.147l-1.619-3.067-1.669 3.185c-.126.114-.252.127-.356.05l-1.603-.85.962 4.947c-.076.196-.26.252-.475.145l-2.2-2.358c-.287.435-.482 1.146-.862 1.305-.38.15-1.654-.301-2.508-.477.292.993 1.204 2.644.627 3.185z" fill="#FF2353"/></g></g></svg>