<svg width="32" height="32" xmlns="http://www.w3.org/2000/svg" xmlns:xlink="http://www.w3.org/1999/xlink"><defs><circle id="a" cx="16" cy="16" r="16"/><path id="c" d="M.017 0H47.97v31.938H.017z"/></defs><g fill="none" fill-rule="evenodd"><mask id="b" fill="#fff"><use xlink:href="#a"/></mask><g mask="url(#b)"><g transform="translate(-8)"><mask id="d" fill="#fff"><use xlink:href="#c"/></mask><use fill="#1D3B80" xlink:href="#c"/><path fill="#FFF" mask="url(#d)" d="M21.045 20.706 5.378 31.938H.017v-3.57l15.667-11.232h5.361zM48 3.57 33.1 14.8H28v-4.133L42.9 0H48z"/><path fill="#FFF" mask="url(#d)" d="M.017 20h47.96v-8H.017z"/><path fill="#FFF" mask="url(#d)" d="m.017 3.57 17.59 10.406 4.439.005v-4L5.378 0H.017zM26 21.57l17.59 10.406 4.439.005v-3.543L30.354 18H26z"/><path fill="#FF2353" mask="url(#d)" d="M28.03 20.019h3.574l16.367 9.539v2.38z"/><path fill="#FFF" mask="url(#d)" d="M19.998 0v31.938h7.992V0h-7.992z"/><path fill="#FF2353" mask="url(#d)" d="M44.397 0h3.574L31.549 12h-3.574zM20.01 11.998h-3.575L.017 2.38V0zM16.526 19.964h3.575L3.59 31.938H.017zM22 0v31.938h4V0h-4z"/><path fill="#FF2353" mask="url(#d)" d="M.017 14v4h47.96v-4z"/></g></g></g></svg>