<svg width="32" height="32" xmlns="http://www.w3.org/2000/svg" xmlns:xlink="http://www.w3.org/1999/xlink"><defs><circle id="a" cx="16" cy="16" r="16"/><circle id="b" cx="16" cy="16" r="16"/><path id="d" d="M0 0h48v32H0z"/></defs><g fill="none" fill-rule="evenodd"><mask id="c" fill="#fff"><use xlink:href="#b"/></mask><g mask="url(#c)"><g transform="translate(-5)"><mask id="e" fill="#fff"><use xlink:href="#d"/></mask><use fill="#FFF" xlink:href="#d"/><path fill="#FF2353" mask="url(#e)" d="M0 14.77h48v2.46H0zM0 9.847h48v2.46H0zM0 4.923h48v2.46H0zM0 0h48v2.46H0zM0 19.693h48v2.46H0zM0 24.617h48v2.46H0zM0 29.54h48V32H0z"/><path fill="#1D3B80" mask="url(#e)" d="M0 0h22v17.24H0z"/><path d="m19.318 14.127-.67.373.207-.79-.62-.558.748-.032.335-.802.334.802.748.032-.62.559.207.789-.67-.373zm-3.247 0-.67.373.207-.79-.62-.558.748-.032.335-.802.334.802.748.032-.62.559.207.789-.67-.373zm-3.247 0-.67.373.207-.79-.62-.558.748-.032.335-.802.334.802.748.032-.62.559.206.789-.668-.373zm-3.248 0-.668.373.206-.79-.62-.558.748-.032.334-.802.335.802.748.032-.62.559.206.789-.669-.373zm-3.247 0-.669.373.207-.79-.62-.558.748-.032.334-.802.335.802.748.032-.62.559.206.789-.669-.373zm-3.247 0-.669.373.207-.79-.62-.558.748-.032.334-.802.335.802.748.032-.62.559.206.789-.669-.373zm1.083-3.272-.67.372.207-.79-.62-.558.748-.032.335-.802.334.802.748.032-.62.559.207.79-.67-.373zm13.53 0-.67.372.206-.79-.62-.558.749-.032.334-.802.335.802.747.032-.62.559.207.79-.669-.373zm-3.248 0-.669.372.206-.79-.62-.558.749-.032.334-.802.335.802.747.032-.62.559.207.79-.669-.373zm-3.247 0-.669.372.206-.79-.62-.558.749-.032.334-.802.334.802.748.032-.62.559.207.79-.669-.373zm-3.247 0-.669.372.206-.79-.62-.558.748-.032.335-.802.334.802.748.032-.62.559.207.79-.67-.373zm11.365-3.273-.67.373.207-.79-.62-.559.748-.032.335-.801.334.801.748.032-.62.56.207.789-.67-.373zm-3.247 0-.67.373.207-.79-.62-.559.748-.032.335-.801.334.801.748.032-.62.56.207.789-.67-.373zm-3.247 0-.67.373.207-.79-.62-.559.748-.032.335-.801.334.801.748.032-.62.56.206.789-.668-.373zm-3.248 0-.668.373.206-.79-.62-.559.748-.032.334-.801.335.801.748.032-.62.56.206.789-.669-.373zm-3.247 0-.669.373.207-.79-.62-.559.748-.032.334-.801.335.801.748.032-.62.56.206.789-.669-.373zm-3.247 0-.669.373.207-.79L2 6.606l.748-.032.334-.801.335.801.748.032-.62.56.206.789-.669-.373zm1.624-3.273-.669.373.206-.79-.62-.559.748-.032.335-.801.334.801.748.032-.62.56.207.789-.67-.373zm12.988 0-.669.373.206-.79-.62-.559.749-.032.334-.801.335.801.747.032-.62.56.207.789-.669-.373zm-3.247 0-.669.373.206-.79-.62-.559.749-.032.334-.801.335.801.747.032-.62.56.207.789-.669-.373zm-3.247 0-.669.373.206-.79-.62-.559.749-.032.334-.801.334.801.748.032-.62.56.207.789-.669-.373zm-3.247 0-.669.373.206-.79-.62-.559.748-.032.335-.801.334.801.748.032-.62.56.207.789-.67-.373z" fill="#FFF" mask="url(#e)"/></g></g></g></svg>